<svg width="9" height="11" viewBox="0 0 9 11" fill="none" xmlns="http://www.w3.org/2000/svg">
<path d="M7.39215 4.78333C7.25798 4.60833 7.09465 4.45667 6.94298 4.305C6.55215 3.955 6.10882 3.70417 5.73548 3.33667C4.86632 2.485 4.67382 1.07917 5.22798 0C4.67382 0.134167 4.18965 0.4375 3.77548 0.77C2.26465 1.98333 1.66965 4.12417 2.38132 5.96167C2.40465 6.02 2.42798 6.07833 2.42798 6.15417C2.42798 6.2825 2.34048 6.39917 2.22382 6.44583C2.08965 6.50417 1.94965 6.46917 1.83882 6.37583C1.80571 6.3481 1.77802 6.31448 1.75715 6.27667C1.09798 5.4425 0.992983 4.24667 1.43632 3.29C0.46215 4.08333 -0.0686836 5.425 0.00714976 6.69083C0.0421498 6.9825 0.0771497 7.27417 0.176316 7.56583C0.257983 7.91583 0.415483 8.26583 0.590483 8.575C1.22048 9.58417 2.31132 10.3075 3.48382 10.4533C4.73215 10.6108 6.06798 10.3833 7.02465 9.52C8.09215 8.55167 8.46548 7 7.91715 5.67L7.84132 5.51833C7.71882 5.25 7.39215 4.78333 7.39215 4.78333ZM5.54882 8.45833C5.38548 8.59833 5.11715 8.75 4.90715 8.80833C4.25382 9.04167 3.60048 8.715 3.21548 8.33C3.90965 8.16667 4.32382 7.65333 4.44632 7.13417C4.54548 6.6675 4.35882 6.2825 4.28298 5.83333C4.21298 5.40167 4.22465 5.03417 4.38215 4.63167C4.49298 4.85333 4.60965 5.075 4.74965 5.25C5.19882 5.83333 5.90465 6.09 6.05632 6.88333C6.07965 6.965 6.09132 7.04667 6.09132 7.13417C6.10882 7.6125 5.89882 8.1375 5.54882 8.45833Z" fill="#FE5E00"/>
</svg>
